<svg xmlns="http://www.w3.org/2000/svg" viewBox="0 0 535.15 535.15">
  <defs>
    <style>
      .cls-1 {
        fill: #2c3e50;
      }

      .cls-1, .cls-2 {
        stroke: #2c3e50;
        stroke-miterlimit: 10;
      }

      .cls-2 {
        fill: none;
        stroke-width: 18px;
      }
    </style>
  </defs>
  <title>LogoMarthaRodriguez</title>
  <g id="Capa_2" data-name="Capa 2">
    <path class="cls-1" d="M578.11,435.18,514.57,330.61c73-18.11,63.09-78.29,63.09-78.29,0-63.09-85.29-70.68-85.29-70.68H416.42l-80,209.14L257.52,181.64H195.6v5.25s22.19-1.17,22.78,25.12V428.75s2.34,22.2-22.78,21.62v8.76h60.75v-8.76c-21.61,4.08-24.53-21.62-24.53-21.62l-.59-209.14L323,459.13l90.78-243.61v215c-3.28,24.54-24.18,19.28-24.18,19.28l.58,9.35H476v-7.6c-21.62-.58-24.54-20.44-24.54-20.44l-.58-97h24.54l74.77,125h57.25v-8.75C589.34,451,578.11,435.18,578.11,435.18ZM450.3,325.92V200.33c3.51-9.35,10.52-10.52,10.52-10.52,84.71-3.5,81.79,67.77,81.79,67.77C545.53,337,450.3,325.92,450.3,325.92Z" transform="translate(-128.42 -62)"/>
    <circle class="cls-2" cx="267.58" cy="267.58" r="258.58"/>
  </g>
</svg>
