<svg id="Capa_1" data-name="Capa 1" xmlns="http://www.w3.org/2000/svg" viewBox="0 0 22 23">
  <defs>
    <style>
      .cls-1 {
        fill: #f1948a;
      }
    </style>
  </defs>
  <title>bank</title>
  <path class="cls-1" d="M5,17V10H7v7Zm6,0V10h2v7ZM2,8V6L12,1,22,6V8ZM6.48,6H17.53L12,3.25ZM2,21V19H14.05c0,.35.08.69.13,1a7,7,0,0,0,.22,1Zm15-7.75V10h2v2.25ZM20,24a4.94,4.94,0,0,1-2.86-2A5.72,5.72,0,0,1,16,18.55V16l4-2,4,2v2.55A5.72,5.72,0,0,1,22.86,22,4.94,4.94,0,0,1,20,24Zm-.72-3,3.47-3.45L21.7,16.5l-2.42,2.37-1-1L17.25,19ZM6.48,6h0Z" transform="translate(-2 -1)"/>
</svg>
