<svg id="Capa_1" data-name="Capa 1" xmlns="http://www.w3.org/2000/svg" viewBox="0 0 394.73 395.39">
  <defs>
    <style>
      .cls-1 {
        fill: #71abdd;
      }

      .cls-2 {
        fill: #feffff;
      }
    </style>
  </defs>
  <title>check</title>
  <g>
    <path class="cls-1" d="M198.63,305.87A197.19,197.19,0,0,1,397.06,108.31c109.78.49,196.49,89.87,196.31,198A197.18,197.18,0,0,1,394.8,503.69C285.12,503.15,198.5,413.86,198.63,305.87Zm295.93-49.34a16.37,16.37,0,0,0-17.44-16.3c-5,.3-8.73,2.91-12.1,6.29q-19.23,19.35-38.46,38.7-22.4,22.45-44.85,44.86c-1.15,1.15-2,2.43-3.85.55-11.07-11.29-22.24-22.47-33.41-33.66a56,56,0,0,0-4.66-4.18c-7.91-6.3-21-2.66-24.6,6.77-2.89,7.48-.95,13.77,4.5,19.24q23.42,23.44,46.87,46.87c8.31,8.31,17.68,8.3,26-.06q48.33-48.44,96.65-96.89c.27-.27.55-.53.81-.81A16.07,16.07,0,0,0,494.56,256.53Z" transform="translate(-198.63 -108.31)"/>
    <path class="cls-2" d="M494.56,256.53A16.07,16.07,0,0,1,490,267.91c-.26.28-.54.54-.81.81q-48.32,48.45-96.65,96.89c-8.34,8.36-17.71,8.37-26,.06q-23.44-23.43-46.87-46.87c-5.45-5.47-7.39-11.76-4.5-19.24,3.64-9.43,16.69-13.07,24.6-6.77a56,56,0,0,1,4.66,4.18c11.17,11.19,22.34,22.37,33.41,33.66,1.85,1.88,2.7.6,3.85-.55q22.43-22.44,44.85-44.86,19.26-19.32,38.46-38.7c3.37-3.38,7.1-6,12.1-6.29A16.37,16.37,0,0,1,494.56,256.53Z" transform="translate(-198.63 -108.31)"/>
  </g>
</svg>
