<svg id="Capa_1" data-name="Capa 1" xmlns="http://www.w3.org/2000/svg" viewBox="0 0 22 22">
  <defs>
    <style>
      .cls-1 {
        fill: none;
        stroke: #fff;
        stroke-linecap: round;
        stroke-linejoin: round;
        stroke-width: 2px;
      }
    </style>
  </defs>
  <title>phone</title>
  <path class="cls-1" d="M13.83,16.57a1,1,0,0,0,1.22-.3l.35-.47A2,2,0,0,1,17,15h3a2,2,0,0,1,2,2v3a2,2,0,0,1-2,2A18,18,0,0,1,2,4,2,2,0,0,1,4,2H7A2,2,0,0,1,9,4V7a2,2,0,0,1-.8,1.6L7.73,9a1,1,0,0,0-.29,1.23,14,14,0,0,0,6.39,6.39" transform="translate(-1 -1)"/>
</svg>
